<svg width="308" height="35" viewBox="0 0 308 35" fill="none" xmlns="http://www.w3.org/2000/svg">
<g clip-path="url(#clip0_620_1068)">
<path d="M30.58 6.19C28.01 9.45 25.94 14.79 24.16 19.41C23.03 22.34 21.95 25.12 20.83 27.2C19.85 29 18.27 31.4 15.81 31.4C15.02 31.4 13.88 31.15 12.93 29.95C12.42 29.31 12.03 28.45 11.72 27.33C11.23 25.55 11.02 23.25 10.81 21.03C10.62 19.06 10.43 17.03 10.07 15.49C10.01 15.24 9.95002 15.02 9.89002 14.83C9.60002 13.88 8.56002 13.37 7.62002 13.7C6.46002 14.11 4.55002 15.1 1.55002 17.4C1.02002 17.8 0.51002 18.22 0.0200195 18.62C0.68002 27.59 8.16002 34.66 17.3 34.66C26.44 34.66 34.63 26.9 34.63 17.33C34.63 13.09 33.11 9.21 30.58 6.19Z" fill="#A3A3A3"/>
<mask id="mask0_620_1068" style="mask-type:luminance" maskUnits="userSpaceOnUse" x="0" y="6" width="35" height="29">
<path d="M30.58 6.19C28.01 9.45 25.94 14.79 24.16 19.41C23.03 22.34 21.95 25.12 20.83 27.2C19.85 29 18.27 31.4 15.81 31.4C15.02 31.4 13.88 31.15 12.93 29.95C12.42 29.31 12.03 28.45 11.72 27.33C11.23 25.55 11.02 23.25 10.81 21.03C10.62 19.06 10.43 17.03 10.07 15.49C10.01 15.24 9.95002 15.02 9.89002 14.83C9.60002 13.88 8.56002 13.37 7.62002 13.7C6.46002 14.11 4.55002 15.1 1.55002 17.4C1.02002 17.8 0.51002 18.22 0.0200195 18.62C0.68002 27.59 8.16002 34.66 17.3 34.66C26.44 34.66 34.63 26.9 34.63 17.33C34.63 13.09 33.11 9.21 30.58 6.19Z" fill="white"/>
</mask>
<g mask="url(#mask0_620_1068)">
<path d="M2.28003 6.19L0.0300293 8.34V6.19H2.28003Z" fill="#A3A3A3"/>
<path d="M2.60003 6.19L0.0300293 8.65V8.34L2.28003 6.19H2.60003Z" fill="#A3A3A3"/>
<path d="M2.92003 6.19L0.0300293 8.95V8.65L2.60003 6.19H2.92003Z" fill="#A3A3A3"/>
<path d="M3.23003 6.19L0.0300293 9.26V8.95L2.92003 6.19H3.23003Z" fill="#A3A3A3"/>
<path d="M3.55003 6.19L0.0300293 9.56V9.26L3.23003 6.19H3.55003Z" fill="#A3A3A3"/>
<path d="M3.87003 6.19L0.0300293 9.87V9.56L3.55003 6.19H3.87003Z" fill="#A3A3A3"/>
<path d="M4.19003 6.19L0.0300293 10.17V9.87L3.87003 6.19H4.19003Z" fill="#A3A3A3"/>
<path d="M4.51003 6.19L0.0300293 10.48V10.17L4.19003 6.19H4.51003Z" fill="#A3A3A3"/>
<path d="M4.83003 6.19L0.0300293 10.78V10.48L4.51003 6.19H4.83003Z" fill="#A3A3A3"/>
<path d="M5.15003 6.19L0.0300293 11.09V10.78L4.83003 6.19H5.15003Z" fill="#A3A3A3"/>
<path d="M5.47003 6.19L0.0300293 11.39V11.09L5.15003 6.19H5.47003Z" fill="#A3A3A3"/>
<path d="M5.78003 6.19L0.0300293 11.7V11.39L5.47003 6.19H5.78003Z" fill="#A3A3A3"/>
<path d="M6.10003 6.19L0.0300293 12V11.7L5.78003 6.19H6.10003Z" fill="#A3A3A3"/>
<path d="M6.42003 6.19L0.0300293 12.31V12L6.10003 6.19H6.42003Z" fill="#A3A3A3"/>
<path d="M6.74003 6.19L0.0300293 12.61V12.31L6.42003 6.19H6.74003Z" fill="#A3A3A3"/>
<path d="M7.06003 6.19L0.0300293 12.92V12.61L6.74003 6.19H7.06003Z" fill="#A3A3A3"/>
<path d="M7.38003 6.19L0.0300293 13.22V12.92L7.06003 6.19H7.38003Z" fill="#A3A3A3"/>
<path d="M7.70003 6.19L0.0300293 13.53V13.22L7.38003 6.19H7.70003Z" fill="#A3A3A3"/>
<path d="M8.02003 6.19L0.0300293 13.83V13.53L7.70003 6.19H8.02003Z" fill="#A3A3A3"/>
<path d="M8.34003 6.19L0.0300293 14.14V13.83L8.02003 6.19H8.34003Z" fill="#A3A3A3"/>
<path d="M8.65003 6.19L0.0300293 14.44V14.14L8.34003 6.19H8.65003Z" fill="#A3A3A3"/>
<path d="M8.97003 6.19L0.0300293 14.75V14.44L8.65003 6.19H8.97003Z" fill="#A3A3A3"/>
<path d="M9.29003 6.19L0.0300293 15.06V14.75L8.97003 6.19H9.29003Z" fill="#A3A3A3"/>
<path d="M9.61003 6.19L0.0300293 15.36V15.06L9.29003 6.19H9.61003Z" fill="#A3A3A3"/>
<path d="M9.93003 6.19L0.0300293 15.67V15.36L9.61003 6.19H9.93003Z" fill="#A3A3A3"/>
<path d="M10.25 6.19L0.0300293 15.97V15.67L9.93003 6.19H10.25Z" fill="#A3A3A3"/>
<path d="M10.57 6.19L0.0300293 16.28V15.97L10.25 6.19H10.57Z" fill="#A3A3A3"/>
<path d="M10.89 6.19L0.0300293 16.58V16.28L10.57 6.19H10.89Z" fill="#A3A3A3"/>
<path d="M11.2 6.19L0.0300293 16.89V16.58L10.89 6.19H11.2Z" fill="#A3A3A3"/>
<path d="M11.52 6.19L0.0300293 17.19V16.89L11.2 6.19H11.52Z" fill="#A3A3A3"/>
<path d="M11.84 6.19L0.0300293 17.5V17.19L11.52 6.19H11.84Z" fill="#A3A3A3"/>
<path d="M12.16 6.19L0.0300293 17.8V17.5L11.84 6.19H12.16Z" fill="#A3A3A3"/>
<path d="M12.48 6.19L0.0300293 18.11V17.8L12.16 6.19H12.48Z" fill="#A3A3A3"/>
<path d="M12.8 6.19L0.0300293 18.41V18.11L12.48 6.19H12.8Z" fill="#A3A3A3"/>
<path d="M13.12 6.19L0.0300293 18.72V18.41L12.8 6.19H13.12Z" fill="#A3A3A3"/>
<path d="M13.44 6.19L0.0300293 19.02V18.72L13.12 6.19H13.44Z" fill="#A3A3A3"/>
<path d="M13.75 6.19L0.0300293 19.33V19.02L13.44 6.19H13.75Z" fill="#A3A3A3"/>
<path d="M14.07 6.19L0.0300293 19.63V19.33L13.75 6.19H14.07Z" fill="#A3A3A3"/>
<path d="M14.39 6.19L0.0300293 19.94V19.63L14.07 6.19H14.39Z" fill="#A3A3A3"/>
<path d="M14.71 6.19L0.0300293 20.24V19.94L14.39 6.19H14.71Z" fill="#A3A3A3"/>
<path d="M15.03 6.19L0.0300293 20.55V20.24L14.71 6.19H15.03Z" fill="#A3A3A3"/>
<path d="M15.35 6.19L0.0300293 20.85V20.55L15.03 6.19H15.35Z" fill="#A3A3A3"/>
<path d="M15.67 6.19L0.0300293 21.16V20.85L15.35 6.19H15.67Z" fill="#A3A3A3"/>
<path d="M15.99 6.19L0.0300293 21.46V21.16L15.67 6.19H15.99Z" fill="#A3A3A3"/>
<path d="M16.31 6.19L0.0300293 21.77V21.46L15.99 6.19H16.31Z" fill="#A3A3A3"/>
<path d="M16.62 6.19L0.0300293 22.07V21.77L16.31 6.19H16.62Z" fill="#A3A3A3"/>
<path d="M16.94 6.19L0.0300293 22.38V22.07L16.62 6.19H16.94Z" fill="#A3A3A3"/>
<path d="M17.26 6.19L0.0300293 22.68V22.38L16.94 6.19H17.26Z" fill="#A3A3A3"/>
<path d="M17.58 6.19L0.0300293 22.99V22.68L17.26 6.19H17.58Z" fill="#A3A3A3"/>
<path d="M17.9 6.19L0.0300293 23.29V22.99L17.58 6.19H17.9Z" fill="#A3A3A3"/>
<path d="M18.22 6.19L0.0300293 23.6V23.29L17.9 6.19H18.22Z" fill="#A3A3A3"/>
<path d="M18.54 6.19L0.0300293 23.9V23.6L18.22 6.19H18.54Z" fill="#A3A3A3"/>
<path d="M18.86 6.19L0.0300293 24.21V23.9L18.54 6.19H18.86Z" fill="#A3A3A3"/>
<path d="M19.17 6.19L0.0300293 24.52V24.21L18.86 6.19H19.17Z" fill="#A3A3A3"/>
<path d="M19.49 6.19L0.0300293 24.82V24.52L19.17 6.19H19.49Z" fill="#A3A3A3"/>
<path d="M19.81 6.19L0.0300293 25.13V24.82L19.49 6.19H19.81Z" fill="#A3A3A3"/>
<path d="M20.13 6.19L0.0300293 25.43V25.13L19.81 6.19H20.13Z" fill="#A3A3A3"/>
<path d="M20.45 6.19L0.0300293 25.74V25.43L20.13 6.19H20.45Z" fill="#A3A3A3"/>
<path d="M20.77 6.19L0.0300293 26.04V25.74L20.45 6.19H20.77Z" fill="#A3A3A3"/>
<path d="M21.09 6.19L0.0300293 26.35V26.04L20.77 6.19H21.09Z" fill="#A3A3A3"/>
<path d="M21.41 6.19L0.0300293 26.65V26.35L21.09 6.19H21.41Z" fill="#A3A3A3"/>
<path d="M21.73 6.19L0.0300293 26.96V26.65L21.41 6.19H21.73Z" fill="#A3A3A3"/>
<path d="M22.04 6.19L0.0300293 27.26V26.96L21.73 6.19H22.04Z" fill="#A3A3A3"/>
<path d="M22.36 6.19L0.0300293 27.57V27.26L22.04 6.19H22.36Z" fill="#A3A3A3"/>
<path d="M22.68 6.19L0.160029 27.75L0.0300293 27.62V27.57L22.36 6.19H22.68Z" fill="#A3A3A3"/>
<path d="M22.9999 6.19L0.309912 27.91L0.159912 27.75L22.6799 6.19H22.9999Z" fill="#A3A3A3"/>
<path d="M23.3201 6.19L0.460059 28.07L0.310059 27.91L23.0001 6.19H23.3201Z" fill="#A3A3A3"/>
<path d="M23.64 6.19L0.609961 28.23L0.459961 28.07L23.32 6.19H23.64Z" fill="#A3A3A3"/>
<path d="M23.9601 6.19L0.770107 28.39L0.610107 28.23L23.6401 6.19H23.9601Z" fill="#A3A3A3"/>
<path d="M24.28 6.19L0.92002 28.55L0.77002 28.39L23.96 6.19H24.28Z" fill="#A3A3A3"/>
<path d="M24.5899 6.19L1.06992 28.71L0.919922 28.55L24.2799 6.19H24.5899Z" fill="#A3A3A3"/>
<path d="M24.9101 6.19L1.22007 28.86L1.07007 28.71L24.5901 6.19H24.9101Z" fill="#A3A3A3"/>
<path d="M25.23 6.19L1.37997 29.02L1.21997 28.86L24.91 6.19H25.23Z" fill="#A3A3A3"/>
<path d="M25.5501 6.19L1.53013 29.18L1.38013 29.02L25.2301 6.19H25.5501Z" fill="#A3A3A3"/>
<path d="M25.87 6.19L1.68003 29.34L1.53003 29.18L25.55 6.19H25.87Z" fill="#A3A3A3"/>
<path d="M26.1899 6.19L1.82993 29.5L1.67993 29.34L25.8699 6.19H26.1899Z" fill="#A3A3A3"/>
<path d="M26.5101 6.19L1.99008 29.66L1.83008 29.5L26.1901 6.19H26.5101Z" fill="#A3A3A3"/>
<path d="M26.83 6.19L2.13999 29.82L1.98999 29.66L26.51 6.19H26.83Z" fill="#A3A3A3"/>
<path d="M27.1501 6.19L2.29014 29.98L2.14014 29.82L26.8301 6.19H27.1501Z" fill="#A3A3A3"/>
<path d="M27.46 6.19L2.44004 30.14L2.29004 29.98L27.15 6.19H27.46Z" fill="#A3A3A3"/>
<path d="M27.7799 6.19L2.59994 30.3L2.43994 30.14L27.4599 6.19H27.7799Z" fill="#A3A3A3"/>
<path d="M28.1001 6.19L2.7501 30.46L2.6001 30.3L27.7801 6.19H28.1001Z" fill="#A3A3A3"/>
<path d="M28.42 6.19L2.9 30.62L2.75 30.46L28.1 6.19H28.42Z" fill="#A3A3A3"/>
<path d="M28.7401 6.19L3.05015 30.78L2.90015 30.62L28.4201 6.19H28.7401Z" fill="#A3A3A3"/>
<path d="M29.06 6.19L3.21005 30.94L3.05005 30.78L28.74 6.19H29.06Z" fill="#A3A3A3"/>
<path d="M29.38 6.19L3.35996 31.09L3.20996 30.94L29.06 6.19H29.38Z" fill="#A3A3A3"/>
<path d="M29.7001 6.19L3.51011 31.25L3.36011 31.09L29.3801 6.19H29.7001Z" fill="#A3A3A3"/>
<path d="M30.01 6.19L3.66001 31.41L3.51001 31.25L29.7 6.19H30.01Z" fill="#A3A3A3"/>
<path d="M30.3299 6.19L3.81991 31.57L3.65991 31.41L30.0099 6.19H30.3299Z" fill="#A3A3A3"/>
<path d="M30.6501 6.19L3.97007 31.73L3.82007 31.57L30.3301 6.19H30.6501Z" fill="#A3A3A3"/>
<path d="M30.97 6.19L4.11997 31.89L3.96997 31.73L30.65 6.19H30.97Z" fill="#A3A3A3"/>
<path d="M31.2701 6.19L31.2801 6.2L4.27012 32.05L4.12012 31.89L30.9701 6.19H31.2701Z" fill="#A3A3A3"/>
<path d="M31.2816 6.18588L4.27246 32.0415L4.42459 32.2005L31.4338 6.3448L31.2816 6.18588Z" fill="#A3A3A3"/>
<path d="M31.4308 6.34773L4.42163 32.2034L4.57376 32.3623L31.583 6.50665L31.4308 6.34773Z" fill="#A3A3A3"/>
<path d="M31.5797 6.50958L4.57056 32.3652L4.72269 32.5242L31.7319 6.6685L31.5797 6.50958Z" fill="#A3A3A3"/>
<path d="M31.746 6.66451L4.73682 32.5202L4.88895 32.6791L31.8981 6.82344L31.746 6.66451Z" fill="#A3A3A3"/>
<path d="M31.8949 6.82636L4.88574 32.682L5.03788 32.841L32.0471 6.98529L31.8949 6.82636Z" fill="#A3A3A3"/>
<path d="M32.0439 6.98821L5.03467 32.8439L5.1868 33.0028L32.196 7.14714L32.0439 6.98821Z" fill="#A3A3A3"/>
<path d="M32.193 7.15008L5.18384 33.0058L5.33597 33.1647L32.3452 7.309L32.193 7.15008Z" fill="#A3A3A3"/>
<path d="M32.3493 7.305L5.34009 33.1607L5.49222 33.3196L32.5014 7.46392L32.3493 7.305Z" fill="#A3A3A3"/>
<path d="M32.5082 7.46686L5.49902 33.3225L5.65116 33.4815L32.6603 7.62578L32.5082 7.46686Z" fill="#A3A3A3"/>
<path d="M32.6571 7.62872L5.64795 33.4844L5.80008 33.6433L32.8093 7.78764L32.6571 7.62872Z" fill="#A3A3A3"/>
<path d="M32.8061 7.79057L5.79688 33.6462L5.94901 33.8052L32.9582 7.94949L32.8061 7.79057Z" fill="#A3A3A3"/>
<path d="M32.9623 7.94551L5.95312 33.8012L6.10526 33.9601L33.1144 8.10442L32.9623 7.94551Z" fill="#A3A3A3"/>
<path d="M33.1144 8.10012L6.10522 33.9558L6.25736 34.1147L33.2665 8.25904L33.1144 8.10012Z" fill="#A3A3A3"/>
<path d="M33.2633 8.26197L6.25415 34.1176L6.40628 34.2766L33.4155 8.42089L33.2633 8.26197Z" fill="#A3A3A3"/>
<path d="M33.4125 8.42382L6.40332 34.2795L6.55545 34.4384L33.5646 8.58274L33.4125 8.42382Z" fill="#A3A3A3"/>
<path d="M33.5688 8.57876L6.55957 34.4344L6.7117 34.5934L33.7209 8.73768L33.5688 8.57876Z" fill="#A3A3A3"/>
<path d="M33.72 8.75002L33.87 8.91002L6.96996 34.65H6.75996L6.70996 34.6L33.72 8.75002Z" fill="#A3A3A3"/>
<path d="M33.87 8.91L34.03 9.07L7.28997 34.65H6.96997L33.87 8.91Z" fill="#A3A3A3"/>
<path d="M34.03 9.07001L34.18 9.22001L7.61004 34.65H7.29004L34.03 9.07001Z" fill="#A3A3A3"/>
<path d="M34.1801 9.22002L34.3301 9.38002L7.93011 34.65H7.61011L34.1801 9.22002Z" fill="#A3A3A3"/>
<path d="M34.3299 9.38L34.4799 9.54L8.24993 34.65H7.92993L34.3299 9.38Z" fill="#A3A3A3"/>
<path d="M34.48 9.54001L34.64 9.70001L8.57 34.65H8.25L34.48 9.54001Z" fill="#A3A3A3"/>
<path d="M34.6401 9.70001V10.01L8.89007 34.65H8.57007L34.6401 9.70001Z" fill="#A3A3A3"/>
<path d="M34.6401 10.31L9.20014 34.65H8.89014L34.6401 10.01V10.31Z" fill="#A3A3A3"/>
<path d="M34.64 10.62L9.51995 34.65H9.19995L34.64 10.31V10.62Z" fill="#A3A3A3"/>
<path d="M34.64 10.92L9.84002 34.65H9.52002L34.64 10.62V10.92Z" fill="#A3A3A3"/>
<path d="M34.6401 11.23L10.1601 34.65H9.84009L34.6401 10.92V11.23Z" fill="#A3A3A3"/>
<path d="M34.6399 11.53L10.4799 34.65H10.1599L34.6399 11.23V11.53Z" fill="#A3A3A3"/>
<path d="M34.64 11.84L10.8 34.65H10.48L34.64 11.53V11.84Z" fill="#A3A3A3"/>
<path d="M34.64 12.14L11.12 34.65H10.8L34.64 11.84V12.14Z" fill="#A3A3A3"/>
<path d="M34.6401 12.45L11.4401 34.65H11.1201L34.6401 12.14V12.45Z" fill="#A3A3A3"/>
<path d="M34.6399 12.75L11.7499 34.65H11.4399L34.6399 12.45V12.75Z" fill="#A3A3A3"/>
<path d="M34.64 13.06L12.07 34.65H11.75L34.64 12.75V13.06Z" fill="#A3A3A3"/>
<path d="M34.6401 13.36L12.3901 34.65H12.0701L34.6401 13.06V13.36Z" fill="#A3A3A3"/>
<path d="M34.6401 13.67L12.7101 34.65H12.3901L34.6401 13.36V13.67Z" fill="#A3A3A3"/>
<path d="M34.64 13.97L13.03 34.65H12.71L34.64 13.67V13.97Z" fill="#A3A3A3"/>
<path d="M34.64 14.28L13.35 34.65H13.03L34.64 13.97V14.28Z" fill="#A3A3A3"/>
<path d="M34.6401 14.58L13.6701 34.65H13.3501L34.6401 14.28V14.58Z" fill="#A3A3A3"/>
<path d="M34.6399 14.89L13.9899 34.65H13.6699L34.6399 14.58V14.89Z" fill="#A3A3A3"/>
<path d="M34.64 15.19L14.31 34.65H13.99L34.64 14.89V15.19Z" fill="#A3A3A3"/>
<path d="M34.6401 15.5L14.6201 34.65H14.3101L34.6401 15.19V15.5Z" fill="#A3A3A3"/>
<path d="M34.6401 15.8L14.9401 34.65H14.6201L34.6401 15.5V15.8Z" fill="#A3A3A3"/>
<path d="M34.6399 16.11L15.2599 34.65H14.9399L34.6399 15.8V16.11Z" fill="#A3A3A3"/>
<path d="M34.64 16.42L15.58 34.65H15.26L34.64 16.11V16.42Z" fill="#A3A3A3"/>
<path d="M34.6401 16.72L15.9001 34.65H15.5801L34.6401 16.42V16.72Z" fill="#A3A3A3"/>
<path d="M34.6401 17.03L16.2201 34.65H15.9001L34.6401 16.72V17.03Z" fill="#A3A3A3"/>
<path d="M34.64 17.33L16.54 34.65H16.22L34.64 17.03V17.33Z" fill="#A3A3A3"/>
<path d="M34.64 17.64L16.86 34.65H16.54L34.64 17.33V17.64Z" fill="#A3A3A3"/>
<path d="M34.6401 17.94L17.1701 34.65H16.8601L34.6401 17.64V17.94Z" fill="#A3A3A3"/>
<path d="M34.6399 18.25L17.4899 34.65H17.1699L34.6399 17.94V18.25Z" fill="#A3A3A3"/>
<path d="M34.64 18.55L17.81 34.65H17.49L34.64 18.25V18.55Z" fill="#A3A3A3"/>
<path d="M34.6401 18.86L18.1301 34.65H17.8101L34.6401 18.55V18.86Z" fill="#A3A3A3"/>
<path d="M34.6401 19.16L18.4501 34.65H18.1301L34.6401 18.86V19.16Z" fill="#A3A3A3"/>
<path d="M34.64 19.47L18.77 34.65H18.45L34.64 19.16V19.47Z" fill="#A3A3A3"/>
<path d="M34.64 19.77L19.09 34.65H18.77L34.64 19.47V19.77Z" fill="#A3A3A3"/>
<path d="M34.6401 20.08L19.4101 34.65H19.0901L34.6401 19.77V20.08Z" fill="#A3A3A3"/>
<path d="M34.6399 20.38L19.7299 34.65H19.4099L34.6399 20.08V20.38Z" fill="#A3A3A3"/>
<path d="M34.64 20.69L20.04 34.65H19.73L34.64 20.38V20.69Z" fill="#A3A3A3"/>
<path d="M34.64 20.99L20.36 34.65H20.04L34.64 20.69V20.99Z" fill="#A3A3A3"/>
<path d="M20.3601 34.65L34.6401 20.99V34.65H20.3601Z" fill="#A3A3A3"/>
</g>
<path d="M10.2701 9.88C12.7101 10.62 13.4301 13.52 13.6701 14.47C14.1201 16.29 14.3301 18.53 14.5401 20.68C14.7101 22.5 14.8701 24.21 15.1601 25.6C15.1601 25.61 15.1601 25.63 15.1601 25.64C15.3701 26.64 16.7001 26.86 17.2201 25.99C17.3701 25.74 17.5301 25.46 17.6901 25.13C18.6501 23.28 19.6301 20.74 20.6701 18.06C22.2101 14.07 23.9601 9.55 26.1401 6.04C26.7101 5.13 27.2801 4.32 27.8801 3.6C24.9601 1.34 21.2901 0 17.3101 0C9.01013 0 2.08013 5.83 0.380127 13.62C4.82013 10.38 7.98013 9.19 10.2701 9.88Z" fill="#A3A3A3"/>
<mask id="mask1_620_1068" style="mask-type:luminance" maskUnits="userSpaceOnUse" x="0" y="0" width="28" height="27">
<path d="M10.2701 9.88C12.7101 10.62 13.4301 13.52 13.6701 14.47C14.1201 16.29 14.3301 18.53 14.5401 20.68C14.7101 22.5 14.8701 24.21 15.1601 25.6C15.1601 25.61 15.1601 25.63 15.1601 25.64C15.3701 26.64 16.7001 26.86 17.2201 25.99C17.3701 25.74 17.5301 25.46 17.6901 25.13C18.6501 23.28 19.6301 20.74 20.6701 18.06C22.2101 14.07 23.9601 9.55 26.1401 6.04C26.7101 5.13 27.2801 4.32 27.8801 3.6C24.9601 1.34 21.2901 0 17.3101 0C9.01013 0 2.08013 5.83 0.380127 13.62C4.82013 10.38 7.98013 9.19 10.2701 9.88Z" fill="white"/>
</mask>
<g mask="url(#mask1_620_1068)">
<path d="M8.75013 0L0.380127 8.01V0H8.75013Z" fill="#A3A3A3"/>
<path d="M9.06013 0L0.380127 8.31V8.01L8.75013 0H9.06013Z" fill="#A3A3A3"/>
<path d="M9.38013 0L0.380127 8.62V8.31L9.06013 0H9.38013Z" fill="#A3A3A3"/>
<path d="M9.70013 0L0.380127 8.92V8.62L9.38013 0H9.70013Z" fill="#A3A3A3"/>
<path d="M10.0201 0L0.380127 9.23V8.92L9.70013 0H10.0201Z" fill="#A3A3A3"/>
<path d="M10.3401 0L0.380127 9.53V9.23L10.0201 0H10.3401Z" fill="#A3A3A3"/>
<path d="M10.6601 0L0.380127 9.84V9.53L10.3401 0H10.6601Z" fill="#A3A3A3"/>
<path d="M10.9801 0L0.380127 10.14V9.84L10.6601 0H10.9801Z" fill="#A3A3A3"/>
<path d="M11.3001 0L0.380127 10.45V10.14L10.9801 0H11.3001Z" fill="#A3A3A3"/>
<path d="M11.6101 0L0.380127 10.75V10.45L11.3001 0H11.6101Z" fill="#A3A3A3"/>
<path d="M11.9301 0L0.380127 11.06V10.75L11.6101 0H11.9301Z" fill="#A3A3A3"/>
<path d="M12.2501 0L0.380127 11.36V11.06L11.9301 0H12.2501Z" fill="#A3A3A3"/>
<path d="M12.5701 0L0.380127 11.67V11.36L12.2501 0H12.5701Z" fill="#A3A3A3"/>
<path d="M12.8901 0L0.380127 11.97V11.67L12.5701 0H12.8901Z" fill="#A3A3A3"/>
<path d="M13.2101 0L0.380127 12.28V11.97L12.8901 0H13.2101Z" fill="#A3A3A3"/>
<path d="M13.5301 0L0.380127 12.58V12.28L13.2101 0H13.5301Z" fill="#A3A3A3"/>
<path d="M13.8501 0L0.380127 12.89V12.58L13.5301 0H13.8501Z" fill="#A3A3A3"/>
<path d="M14.1701 0L0.380127 13.19V12.89L13.8501 0H14.1701Z" fill="#A3A3A3"/>
<path d="M14.4801 0L0.380127 13.5V13.19L14.1701 0H14.4801Z" fill="#A3A3A3"/>
<path d="M14.8001 0L0.380127 13.8V13.5L14.4801 0H14.8001Z" fill="#A3A3A3"/>
<path d="M15.1201 0L0.380127 14.11V13.8L14.8001 0H15.1201Z" fill="#A3A3A3"/>
<path d="M15.4401 0L0.420127 14.38L0.380127 14.34V14.11L15.1201 0H15.4401Z" fill="#A3A3A3"/>
<path d="M15.7602 0L0.570166 14.54L0.420166 14.38L15.4402 0H15.7602Z" fill="#A3A3A3"/>
<path d="M16.0801 0L0.720068 14.7L0.570068 14.54L15.7601 0H16.0801Z" fill="#A3A3A3"/>
<path d="M16.4002 0L0.870215 14.86L0.720215 14.7L16.0802 0H16.4002Z" fill="#A3A3A3"/>
<path d="M16.7201 0L1.03012 15.02L0.870117 14.86L16.4001 0H16.7201Z" fill="#A3A3A3"/>
<path d="M17.03 0L1.18003 15.18L1.03003 15.02L16.72 0H17.03Z" fill="#A3A3A3"/>
<path d="M17.3502 0L1.33018 15.34L1.18018 15.18L17.0302 0H17.3502Z" fill="#A3A3A3"/>
<path d="M17.6701 0L1.48008 15.5L1.33008 15.34L17.3501 0H17.6701Z" fill="#A3A3A3"/>
<path d="M17.9902 0L1.64022 15.65L1.48022 15.5L17.6702 0H17.9902Z" fill="#A3A3A3"/>
<path d="M18.3101 0L1.79014 15.81L1.64014 15.65L17.9901 0H18.3101Z" fill="#A3A3A3"/>
<path d="M18.63 0L1.94004 15.97L1.79004 15.81L18.31 0H18.63Z" fill="#A3A3A3"/>
<path d="M18.9502 0L2.09019 16.13L1.94019 15.97L18.6302 0H18.9502Z" fill="#A3A3A3"/>
<path d="M19.2701 0L2.25009 16.29L2.09009 16.13L18.9501 0H19.2701Z" fill="#A3A3A3"/>
<path d="M19.5902 0L2.40024 16.45L2.25024 16.29L19.2702 0H19.5902Z" fill="#A3A3A3"/>
<path d="M19.9001 0L2.55015 16.61L2.40015 16.45L19.5901 0H19.9001Z" fill="#A3A3A3"/>
<path d="M20.22 0L2.70005 16.77L2.55005 16.61L19.9 0H20.22Z" fill="#A3A3A3"/>
<path d="M20.5402 0L2.8602 16.93L2.7002 16.77L20.2202 0H20.5402Z" fill="#A3A3A3"/>
<path d="M20.8601 0L3.01011 17.09L2.86011 16.93L20.5401 0H20.8601Z" fill="#A3A3A3"/>
<path d="M21.18 0L3.16001 17.25L3.01001 17.09L20.86 0H21.18Z" fill="#A3A3A3"/>
<path d="M21.5002 0L3.31016 17.41L3.16016 17.25L21.1802 0H21.5002Z" fill="#A3A3A3"/>
<path d="M21.8201 0L3.46006 17.57L3.31006 17.41L21.5001 0H21.8201Z" fill="#A3A3A3"/>
<path d="M22.1402 0L3.6202 17.72L3.46021 17.57L21.8202 0H22.1402Z" fill="#A3A3A3"/>
<path d="M22.4501 0L3.77012 17.88L3.62012 17.72L22.1401 0H22.4501Z" fill="#A3A3A3"/>
<path d="M22.77 0L3.92002 18.04L3.77002 17.88L22.45 0H22.77Z" fill="#A3A3A3"/>
<path d="M23.0902 0L4.07017 18.2L3.92017 18.04L22.7702 0H23.0902Z" fill="#A3A3A3"/>
<path d="M23.4101 0L4.23007 18.36L4.07007 18.2L23.0901 0H23.4101Z" fill="#A3A3A3"/>
<path d="M23.7302 0L4.38022 18.52L4.23022 18.36L23.4102 0H23.7302Z" fill="#A3A3A3"/>
<path d="M24.0501 0L4.53013 18.68L4.38013 18.52L23.7301 0H24.0501Z" fill="#A3A3A3"/>
<path d="M24.37 0L4.68003 18.84L4.53003 18.68L24.05 0H24.37Z" fill="#A3A3A3"/>
<path d="M24.6902 0L4.84018 19L4.68018 18.84L24.3702 0H24.6902Z" fill="#A3A3A3"/>
<path d="M25.0101 0L4.99009 19.16L4.84009 19L24.6901 0H25.0101Z" fill="#A3A3A3"/>
<path d="M25.1302 0L25.2202 0.1L5.14023 19.32L4.99023 19.16L25.0102 0H25.1302Z" fill="#A3A3A3"/>
<path d="M25.2265 0.0987066L5.14478 19.3228L5.29691 19.4817L25.3786 0.257626L25.2265 0.0987066Z" fill="#A3A3A3"/>
<path d="M25.3754 0.260555L5.2937 19.4846L5.44583 19.6435L25.5276 0.419476L25.3754 0.260555Z" fill="#A3A3A3"/>
<path d="M25.5243 0.422405L5.44263 19.6465L5.59476 19.8054L25.6765 0.581325L25.5243 0.422405Z" fill="#A3A3A3"/>
<path d="M25.6838 0.570127L5.60205 19.7942L5.75418 19.9531L25.8359 0.729047L25.6838 0.570127Z" fill="#A3A3A3"/>
<path d="M25.8327 0.721982L5.75098 19.946L5.90311 20.105L25.9848 0.880902L25.8327 0.721982Z" fill="#A3A3A3"/>
<path d="M25.9816 0.883832L5.8999 20.1079L6.05203 20.2668L26.1338 1.04275L25.9816 0.883832Z" fill="#A3A3A3"/>
<path d="M26.1308 1.04568L6.04907 20.2697L6.20121 20.4287L26.2829 1.2046L26.1308 1.04568Z" fill="#A3A3A3"/>
<path d="M26.287 1.20062L6.20532 20.4247L6.35746 20.5836L26.4392 1.35954L26.287 1.20062Z" fill="#A3A3A3"/>
<path d="M26.446 1.36247L6.36426 20.5865L6.51639 20.7455L26.5981 1.52139L26.446 1.36247Z" fill="#A3A3A3"/>
<path d="M26.5949 1.52432L6.51318 20.7484L6.66532 20.9073L26.747 1.68324L26.5949 1.52432Z" fill="#A3A3A3"/>
<path d="M26.7438 1.68617L6.66211 20.9102L6.81424 21.0692L26.896 1.84509L26.7438 1.68617Z" fill="#A3A3A3"/>
<path d="M26.9001 1.84111L6.81836 21.0652L6.97049 21.2241L27.0522 2.00003L26.9001 1.84111Z" fill="#A3A3A3"/>
<path d="M27.0593 2.00296L6.97754 21.227L7.12967 21.3859L27.2114 2.16188L27.0593 2.00296Z" fill="#A3A3A3"/>
<path d="M27.2082 2.16481L7.12646 21.3889L7.2786 21.5478L27.3603 2.32373L27.2082 2.16481Z" fill="#A3A3A3"/>
<path d="M27.3571 2.32666L7.27539 21.5507L7.42752 21.7096L27.5092 2.48558L27.3571 2.32666Z" fill="#A3A3A3"/>
<path d="M27.5134 2.4816L7.43164 21.7057L7.58377 21.8646L27.6655 2.64052L27.5134 2.4816Z" fill="#A3A3A3"/>
<path d="M27.6623 2.64345L7.58057 21.8675L7.7327 22.0264L27.8144 2.80237L27.6623 2.64345Z" fill="#A3A3A3"/>
<path d="M27.8102 2.8L27.8802 2.88V3.04L7.89022 22.18L7.73022 22.02L27.8102 2.8Z" fill="#A3A3A3"/>
<path d="M27.8801 3.34999L8.04014 22.34L7.89014 22.18L27.8801 3.03999V3.34999Z" fill="#A3A3A3"/>
<path d="M27.88 3.65001L8.19004 22.5L8.04004 22.34L27.88 3.35001V3.65001Z" fill="#A3A3A3"/>
<path d="M27.8802 3.95999L8.34019 22.66L8.19019 22.5L27.8802 3.64999V3.95999Z" fill="#A3A3A3"/>
<path d="M27.8801 4.26001L8.49009 22.82L8.34009 22.66L27.8801 3.96001V4.26001Z" fill="#A3A3A3"/>
<path d="M27.8802 4.56999L8.65023 22.98L8.49023 22.82L27.8802 4.25999V4.56999Z" fill="#A3A3A3"/>
<path d="M27.8801 4.87001L8.80015 23.14L8.65015 22.98L27.8801 4.57001V4.87001Z" fill="#A3A3A3"/>
<path d="M27.88 5.18L8.95005 23.3L8.80005 23.14L27.88 4.87V5.18Z" fill="#A3A3A3"/>
<path d="M27.8802 5.47999L9.10019 23.46L8.9502 23.3L27.8802 5.17999V5.47999Z" fill="#A3A3A3"/>
<path d="M27.8801 5.79L9.2601 23.62L9.1001 23.46L27.8801 5.48V5.79Z" fill="#A3A3A3"/>
<path d="M27.88 6.08999L9.41001 23.78L9.26001 23.62L27.88 5.78999V6.08999Z" fill="#A3A3A3"/>
<path d="M27.8802 6.4L9.56016 23.94L9.41016 23.78L27.8802 6.09V6.4Z" fill="#A3A3A3"/>
<path d="M27.8801 6.69999L9.71006 24.1L9.56006 23.94L27.8801 6.39999V6.69999Z" fill="#A3A3A3"/>
<path d="M27.8802 7.01L9.8702 24.25L9.71021 24.1L27.8802 6.7V7.01Z" fill="#A3A3A3"/>
<path d="M27.8801 7.30999L10.0201 24.41L9.87012 24.25L27.8801 7.00999V7.30999Z" fill="#A3A3A3"/>
<path d="M27.88 7.62L10.17 24.57L10.02 24.41L27.88 7.31V7.62Z" fill="#A3A3A3"/>
<path d="M27.8802 7.92L10.3202 24.73L10.1702 24.57L27.8802 7.62V7.92Z" fill="#A3A3A3"/>
<path d="M27.8801 8.23L10.4801 24.89L10.3201 24.73L27.8801 7.92V8.23Z" fill="#A3A3A3"/>
<path d="M27.8802 8.54L10.6302 25.05L10.4802 24.89L27.8802 8.23V8.54Z" fill="#A3A3A3"/>
<path d="M27.8801 8.83999L10.7801 25.21L10.6301 25.05L27.8801 8.53999V8.83999Z" fill="#A3A3A3"/>
<path d="M27.88 9.15L10.93 25.37L10.78 25.21L27.88 8.84V9.15Z" fill="#A3A3A3"/>
<path d="M27.8802 9.44999L11.0902 25.53L10.9302 25.37L27.8802 9.14999V9.44999Z" fill="#A3A3A3"/>
<path d="M27.8801 9.76L11.2401 25.69L11.0901 25.53L27.8801 9.45V9.76Z" fill="#A3A3A3"/>
<path d="M27.8802 10.06L11.3902 25.85L11.2402 25.69L27.8802 9.75999V10.06Z" fill="#A3A3A3"/>
<path d="M27.8801 10.37L11.5401 26.01L11.3901 25.85L27.8801 10.06V10.37Z" fill="#A3A3A3"/>
<path d="M27.88 10.67L11.7 26.17L11.54 26.01L27.88 10.37V10.67Z" fill="#A3A3A3"/>
<path d="M27.8802 10.98L11.8502 26.32L11.7002 26.17L27.8802 10.67V10.98Z" fill="#A3A3A3"/>
<path d="M27.8801 11.28L12.0001 26.48L11.8501 26.32L27.8801 10.98V11.28Z" fill="#A3A3A3"/>
<path d="M27.8802 11.59L12.1502 26.64L12.0002 26.48L27.8802 11.28V11.59Z" fill="#A3A3A3"/>
<path d="M27.8801 11.89L12.3101 26.8L12.1501 26.64L27.8801 11.59V11.89Z" fill="#A3A3A3"/>
<path d="M27.8801 12.2L12.5601 26.87H12.3701L12.3101 26.8L27.8801 11.89V12.2Z" fill="#A3A3A3"/>
<path d="M27.8801 12.5L12.8801 26.87H12.5601L27.8801 12.2V12.5Z" fill="#A3A3A3"/>
<path d="M27.8801 12.81L13.2001 26.87H12.8801L27.8801 12.5V12.81Z" fill="#A3A3A3"/>
<path d="M27.8802 13.11L13.5102 26.87H13.2002L27.8802 12.81V13.11Z" fill="#A3A3A3"/>
<path d="M27.88 13.42L13.83 26.87H13.51L27.88 13.11V13.42Z" fill="#A3A3A3"/>
<path d="M27.8801 13.72L14.1501 26.87H13.8301L27.8801 13.42V13.72Z" fill="#A3A3A3"/>
<path d="M27.8801 14.03L14.4701 26.87H14.1501L27.8801 13.72V14.03Z" fill="#A3A3A3"/>
<path d="M27.8802 14.33L14.7902 26.87H14.4702L27.8802 14.03V14.33Z" fill="#A3A3A3"/>
<path d="M27.88 14.64L15.11 26.87H14.79L27.88 14.33V14.64Z" fill="#A3A3A3"/>
<path d="M27.8801 14.94L15.4301 26.87H15.1101L27.8801 14.64V14.94Z" fill="#A3A3A3"/>
<path d="M27.8802 15.25L15.7502 26.87H15.4302L27.8802 14.94V15.25Z" fill="#A3A3A3"/>
<path d="M27.8802 15.55L16.0602 26.87H15.7502L27.8802 15.25V15.55Z" fill="#A3A3A3"/>
<path d="M27.8801 15.86L16.3801 26.87H16.0601L27.8801 15.55V15.86Z" fill="#A3A3A3"/>
<path d="M27.8801 16.16L16.7001 26.87H16.3801L27.8801 15.86V16.16Z" fill="#A3A3A3"/>
<path d="M27.8802 16.47L17.0202 26.87H16.7002L27.8802 16.16V16.47Z" fill="#A3A3A3"/>
<path d="M27.88 16.77L17.34 26.87H17.02L27.88 16.47V16.77Z" fill="#A3A3A3"/>
<path d="M27.8801 17.08L17.6601 26.87H17.3401L27.8801 16.77V17.08Z" fill="#A3A3A3"/>
<path d="M27.8802 17.38L17.9802 26.87H17.6602L27.8802 17.08V17.38Z" fill="#A3A3A3"/>
<path d="M27.8802 17.69L18.3002 26.87H17.9802L27.8802 17.38V17.69Z" fill="#A3A3A3"/>
<path d="M27.88 17.99L18.62 26.87H18.3L27.88 17.69V17.99Z" fill="#A3A3A3"/>
<path d="M27.8801 18.3L18.9301 26.87H18.6201L27.8801 17.99V18.3Z" fill="#A3A3A3"/>
<path d="M27.8802 18.61L19.2502 26.87H18.9302L27.8802 18.3V18.61Z" fill="#A3A3A3"/>
<path d="M27.8802 18.91L19.5702 26.87H19.2502L27.8802 18.61V18.91Z" fill="#A3A3A3"/>
<path d="M27.8801 19.22L19.8901 26.87H19.5701L27.8801 18.91V19.22Z" fill="#A3A3A3"/>
<path d="M27.8801 19.52L20.2101 26.87H19.8901L27.8801 19.22V19.52Z" fill="#A3A3A3"/>
<path d="M27.8802 19.83L20.5302 26.87H20.2102L27.8802 19.52V19.83Z" fill="#A3A3A3"/>
<path d="M27.88 20.13L20.85 26.87H20.53L27.88 19.83V20.13Z" fill="#A3A3A3"/>
<path d="M27.8801 20.44L21.1701 26.87H20.8501L27.8801 20.13V20.44Z" fill="#A3A3A3"/>
<path d="M27.8802 20.74L21.4802 26.87H21.1702L27.8802 20.44V20.74Z" fill="#A3A3A3"/>
<path d="M27.8802 21.05L21.8002 26.87H21.4802L27.8802 20.74V21.05Z" fill="#A3A3A3"/>
<path d="M27.88 21.35L22.12 26.87H21.8L27.88 21.05V21.35Z" fill="#A3A3A3"/>
<path d="M27.8801 21.66L22.4401 26.87H22.1201L27.8801 21.35V21.66Z" fill="#A3A3A3"/>
<path d="M27.8802 21.96L22.7602 26.87H22.4402L27.8802 21.66V21.96Z" fill="#A3A3A3"/>
<path d="M27.88 22.27L23.08 26.87H22.76L27.88 21.96V22.27Z" fill="#A3A3A3"/>
<path d="M27.8801 22.57L23.4001 26.87H23.0801L27.8801 22.27V22.57Z" fill="#A3A3A3"/>
<path d="M27.8801 22.88L23.7201 26.87H23.4001L27.8801 22.57V22.88Z" fill="#A3A3A3"/>
<path d="M27.8802 23.18L24.0402 26.87H23.7202L27.8802 22.88V23.18Z" fill="#A3A3A3"/>
<path d="M27.88 23.49L24.35 26.87H24.04L27.88 23.18V23.49Z" fill="#A3A3A3"/>
<path d="M27.8801 23.79L24.6701 26.87H24.3501L27.8801 23.49V23.79Z" fill="#A3A3A3"/>
<path d="M27.8802 24.1L24.9902 26.87H24.6702L27.8802 23.79V24.1Z" fill="#A3A3A3"/>
<path d="M27.8802 24.4L25.3102 26.87H24.9902L27.8802 24.1V24.4Z" fill="#A3A3A3"/>
<path d="M27.8801 24.71L25.6301 26.87H25.3101L27.8801 24.4V24.71Z" fill="#A3A3A3"/>
<path d="M27.8801 25.01L25.9501 26.87H25.6301L27.8801 24.71V25.01Z" fill="#A3A3A3"/>
<path d="M27.8802 25.32L26.2702 26.87H25.9502L27.8802 25.01V25.32Z" fill="#A3A3A3"/>
<path d="M27.88 25.62L26.59 26.87H26.27L27.88 25.32V25.62Z" fill="#A3A3A3"/>
<path d="M27.8801 25.93L26.9001 26.87H26.5901L27.8801 25.62V25.93Z" fill="#A3A3A3"/>
<path d="M27.8801 26.23L27.2201 26.87H26.9001L27.8801 25.93V26.23Z" fill="#A3A3A3"/>
<path d="M27.8802 26.54L27.5402 26.87H27.2202L27.8802 26.23V26.54Z" fill="#A3A3A3"/>
</g>
<path d="M46.4299 6.69H49.7299L54.3999 22.89H54.4599L59.1399 6.69H62.4399L55.6399 27.96H53.2099L46.4199 6.69H46.4299Z" fill="#A3A3A3"/>
<path d="M77.74 19.21L71.54 6.69H74.85L79.22 16.13L83.59 6.69H86.9L80.7 19.21V27.96H77.76V19.21H77.74Z" fill="#A3A3A3"/>
<path d="M98.0498 6.69H105.26C108.05 6.71 110.14 7.91 111.54 10.28C112.04 11.08 112.35 11.91 112.49 12.79C112.59 13.67 112.65 15.18 112.65 17.33C112.65 19.62 112.57 21.21 112.41 22.11C112.33 22.57 112.22 22.98 112.07 23.34C111.91 23.69 111.72 24.05 111.49 24.43C110.89 25.43 110.05 26.26 108.97 26.91C107.91 27.61 106.6 27.96 105.06 27.96H98.0598V6.69H98.0498ZM101.17 24.93H104.9C106.65 24.93 107.93 24.31 108.72 23.07C109.07 22.61 109.29 22.03 109.38 21.33C109.46 20.64 109.51 19.34 109.51 17.44C109.51 15.54 109.47 14.26 109.38 13.46C109.27 12.66 109 12.01 108.57 11.52C107.7 10.28 106.48 9.68 104.89 9.72H101.16V24.92L101.17 24.93Z" fill="#A3A3A3"/>
<path d="M125.83 6.69H128.95V27.96H125.83V6.69Z" fill="#A3A3A3"/>
<path d="M153.05 23.2H145.24L143.66 27.96H140.35L147.84 6.69H150.45L157.94 27.96H154.65L153.05 23.2ZM152.16 20.35L149.18 11.05H149.12L146.14 20.35H152.16Z" fill="#A3A3A3"/>
<path d="M172.56 0H172.06V34.65H172.56V0Z" fill="#A3A3A3"/>
<path d="M205.27 20.57H202.12C201.67 20.57 201.37 20.33 201.37 19.96C201.37 19.68 201.57 19.35 201.89 19.08C202.32 19.35 202.85 19.5 203.42 19.5C204.05 19.5 204.63 19.31 205.09 18.99C205.09 18.99 205.15 18.95 205.18 18.92C205.75 18.48 206.11 17.84 206.11 17.11C206.11 16.96 206.11 16.8 206.08 16.64C205.98 16.16 205.74 15.74 205.39 15.41L206.58 15.21C206.69 15.19 206.75 15.09 206.73 14.98C206.67 14.73 206.41 14.58 206.19 14.66L205 15.09C204.56 14.81 204.02 14.64 203.43 14.64C201.92 14.64 200.72 15.73 200.72 17.1C200.72 17.85 201.12 18.54 201.75 18.98C200.97 19.57 200.51 20.13 200.51 20.69C200.51 21.21 200.85 21.62 201.43 21.8V21.91C200.61 22.13 199.91 22.63 199.91 23.28C199.91 24.25 201.12 24.98 202.73 24.98C204.56 24.98 206.93 23.5 206.93 21.84C206.93 21.02 206.25 20.56 205.28 20.56M203.42 14.85C204.17 14.85 204.63 15.69 204.63 17.11C204.63 18.53 204.17 19.29 203.42 19.29C202.63 19.29 202.16 18.47 202.16 17.11C202.16 15.75 202.63 14.85 203.42 14.85ZM203.63 24.2C202.17 24.23 201.14 23.63 201.14 22.82C201.14 22.31 201.55 21.93 202.29 21.93H205.33C205.98 21.93 206.27 22.19 206.27 22.62C206.27 23.48 205.16 24.18 203.63 24.2Z" fill="#A3A3A3"/>
<path d="M213.07 16.63C213.07 15.46 212.25 14.65 211.04 14.65C210.08 14.65 207.46 15.71 207.46 16.82C207.46 17.23 207.73 17.52 208.11 17.52C209.13 17.52 208.67 15.81 209.4 15.34C209.66 15.17 209.9 15.11 210.19 15.11C210.98 15.11 211.56 15.76 211.56 16.68V17.29C209.82 18.04 207.5 18.89 207.5 20.14C207.5 20.93 208.11 21.49 209.01 21.49C209.91 21.49 210.81 20.83 211.56 20.01V21.49L213.91 20.57L213.07 20.33V16.63ZM211.56 19.72C211.09 20.26 210.58 20.68 210.01 20.68C209.41 20.68 208.99 20.27 208.99 19.67C208.99 18.71 210.15 18.1 211.56 17.51V19.72Z" fill="#A3A3A3"/>
<path d="M224.71 16.56C224.71 15.41 223.93 14.64 222.91 14.64C222.31 14.64 221.33 15.23 220.55 15.74C220.27 15.06 219.64 14.64 218.89 14.64C218.34 14.64 217.45 15.15 216.68 15.65V14.64L214.27 15.7L215.16 16.07V20.77L214.36 21.33H217.54L216.68 20.77V15.84C217.15 15.57 217.68 15.37 218.1 15.37C218.7 15.37 219.19 15.92 219.19 16.63V20.77L218.32 21.33H221.54L220.7 20.77V16.56C220.7 16.32 220.67 16.1 220.61 15.9C221.12 15.61 221.66 15.38 222.1 15.38C222.71 15.38 223.2 15.93 223.2 16.64V20.78L222.34 21.34H225.51L224.72 20.78V16.57L224.71 16.56Z" fill="#A3A3A3"/>
<path d="M236.34 16.56C236.34 15.41 235.56 14.64 234.54 14.64C233.94 14.64 232.96 15.23 232.18 15.74C231.9 15.06 231.27 14.64 230.52 14.64C229.97 14.64 229.08 15.15 228.31 15.65V14.64L225.9 15.7L226.79 16.07V20.77L225.99 21.33H229.17L228.31 20.77V15.84C228.78 15.57 229.31 15.37 229.73 15.37C230.33 15.37 230.82 15.92 230.82 16.63V20.77L229.95 21.33H233.17L232.33 20.77V16.56C232.33 16.32 232.3 16.1 232.24 15.9C232.75 15.61 233.29 15.38 233.73 15.38C234.34 15.38 234.83 15.93 234.83 16.64V20.78L233.97 21.34H237.14L236.35 20.78V16.57L236.34 16.56Z" fill="#A3A3A3"/>
<path d="M243.42 16.63C243.42 15.46 242.6 14.65 241.39 14.65C240.43 14.65 237.81 15.71 237.81 16.82C237.81 17.23 238.08 17.52 238.46 17.52C239.48 17.52 239.02 15.81 239.75 15.34C240.01 15.17 240.25 15.11 240.54 15.11C241.33 15.11 241.91 15.76 241.91 16.68V17.29C240.17 18.04 237.85 18.89 237.85 20.14C237.85 20.93 238.46 21.49 239.36 21.49C240.26 21.49 241.16 20.83 241.91 20.01V21.49L244.26 20.57L243.42 20.33V16.63ZM241.91 19.72C241.44 20.26 240.93 20.68 240.36 20.68C239.76 20.68 239.34 20.27 239.34 19.67C239.34 18.71 240.5 18.1 241.91 17.51V19.72Z" fill="#A3A3A3"/>
<path d="M245.71 20.04C245.27 20.04 244.95 20.35 244.95 20.75C244.95 21.15 245.27 21.48 245.71 21.48C246.09 21.48 246.42 21.16 246.42 20.75C246.42 20.34 246.09 20.04 245.71 20.04Z" fill="#A3A3A3"/>
<path d="M186.68 19.4C186.68 17.87 188.18 17.57 189.49 17.42C190.5 17.32 191.33 17.31 191.33 16.78C191.33 16.02 190.71 15.48 189.77 15.48C188.83 15.48 188.13 15.99 188.03 16.76H186.83C186.95 15.42 188.17 14.48 189.79 14.48C191.41 14.48 192.5 15.46 192.5 16.86V20C192.5 20.21 192.61 20.31 192.84 20.31H193.2V21.27H192.58C191.88 21.27 191.49 20.97 191.45 20.39C191.44 20.33 191.43 20.25 191.43 20.18C191.04 20.93 190.3 21.38 189.17 21.38C187.66 21.38 186.67 20.62 186.68 19.39V19.4ZM191.33 18.67V17.78C191.07 18.17 190.37 18.24 189.59 18.33C188.71 18.43 187.88 18.56 187.88 19.34C187.88 19.99 188.45 20.39 189.37 20.39C190.52 20.39 191.33 19.68 191.33 18.66V18.67Z" fill="#A3A3A3"/>
<path d="M253.1 17.92C253.1 15.71 254.56 14.48 256.4 14.48C258.13 14.48 259.33 15.52 259.49 17.19H258.32C258.16 16.16 257.44 15.5 256.39 15.5C255.14 15.5 254.31 16.43 254.31 17.91C254.31 19.5 255.26 20.39 256.45 20.39C257.45 20.39 258.14 19.75 258.31 18.68H259.48C259.31 20.39 258.17 21.42 256.43 21.42C254.28 21.42 253.09 19.86 253.09 17.92H253.1Z" fill="#A3A3A3"/>
<path d="M260.44 17.9C260.44 15.7 261.89 14.49 263.74 14.49C265.87 14.49 267.04 16 267.04 17.9C267.04 20.16 265.64 21.43 263.74 21.43C261.6 21.43 260.44 19.92 260.44 17.9ZM265.82 17.9C265.82 16.47 265.01 15.51 263.74 15.51C262.47 15.51 261.67 16.47 261.67 17.9C261.67 19.51 262.58 20.4 263.74 20.4C265.07 20.4 265.82 19.3 265.82 17.9Z" fill="#A3A3A3"/>
<path d="M268.33 21.27V14.64H269.29L269.39 15.63C269.83 14.94 270.67 14.48 271.64 14.48C272.61 14.48 273.35 14.97 273.7 15.76C274.1 15.02 275 14.48 276.01 14.48C277.41 14.48 278.31 15.46 278.31 16.84V21.27H277.1V16.89C277.1 16.06 276.59 15.53 275.76 15.53C274.61 15.53 273.92 16.29 273.91 17.24V21.27H272.72V16.89C272.72 16.06 272.21 15.53 271.38 15.53C270.22 15.53 269.53 16.29 269.52 17.24V21.27H268.32H268.33Z" fill="#A3A3A3"/>
<path d="M279.88 23.77V14.64H280.84L280.95 15.8C281.41 14.99 282.29 14.47 283.35 14.47C285.1 14.47 286.34 15.87 286.34 17.91C286.34 19.95 285.1 21.41 283.35 21.41C282.36 21.41 281.54 20.97 281.07 20.22V23.76H279.87L279.88 23.77ZM285.09 17.92C285.09 16.49 284.29 15.51 283.11 15.51C281.93 15.51 281.07 16.49 281.07 17.89C281.07 19.37 281.92 20.4 283.12 20.4C284.32 20.4 285.08 19.39 285.08 17.92H285.09Z" fill="#A3A3A3"/>
<path d="M287.29 19.4C287.29 17.87 288.79 17.57 290.1 17.42C291.11 17.32 291.94 17.31 291.94 16.78C291.94 16.02 291.31 15.48 290.38 15.48C289.45 15.48 288.74 15.99 288.64 16.76H287.44C287.56 15.42 288.78 14.48 290.4 14.48C292.02 14.48 293.11 15.46 293.11 16.86V20C293.11 20.21 293.22 20.31 293.45 20.31H293.81V21.27H293.19C292.49 21.27 292.1 20.97 292.07 20.39C292.06 20.33 292.04 20.25 292.04 20.18C291.65 20.93 290.92 21.38 289.78 21.38C288.27 21.38 287.28 20.62 287.29 19.39V19.4ZM291.94 18.67V17.78C291.68 18.17 290.98 18.24 290.2 18.33C289.32 18.43 288.49 18.56 288.49 19.34C288.49 19.99 289.06 20.39 289.98 20.39C291.13 20.39 291.94 19.68 291.94 18.66V18.67Z" fill="#A3A3A3"/>
<path d="M294.92 21.27V14.64H295.88L295.99 15.64C296.41 14.94 297.28 14.48 298.26 14.48C299.67 14.48 300.62 15.41 300.62 16.88V21.27H299.41V16.93C299.41 16.08 298.86 15.53 297.92 15.53C296.82 15.53 296.12 16.29 296.11 17.26V21.27H294.91H294.92Z" fill="#A3A3A3"/>
<path d="M301.77 23.77V22.76H302.88C303.52 22.76 303.81 22.54 303.94 22.15L304.27 21.27H304.01L301.39 14.64H302.69L304.74 20.02L306.74 14.64H307.98L305.03 22.57C304.74 23.35 304.09 23.77 302.89 23.77H301.78H301.77Z" fill="#A3A3A3"/>
</g>
<defs>
<clipPath id="clip0_620_1068">
<rect width="307.94" height="34.65" fill="white" transform="translate(0.0300293)"/>
</clipPath>
</defs>
</svg>
